<svg width="39" height="24" viewBox="0 0 39 24" fill="none" xmlns="http://www.w3.org/2000/svg">
<path d="M30.4509 9.20027V2.62268C30.4509 1.17895 29.0133 0.00488281 27.2455 0.00488281H3.20531C1.43753 0.00488281 0 1.17889 0 2.62268V15.7115C0 17.1553 1.43753 18.3293 3.20538 18.3293H21.1765C22.2265 21.3463 25.6233 23.5649 29.6496 23.5649C31.199 23.5649 32.7226 23.2319 34.0577 22.6011C34.4404 22.4202 34.5719 22.0201 34.3496 21.707C34.1281 21.3938 33.6375 21.2858 33.2548 21.4686C32.1639 21.9838 30.9172 22.256 29.6495 22.256C25.6725 22.256 22.4374 19.6139 22.4374 16.366C22.4374 13.1181 25.6726 10.476 29.6495 10.476C33.6264 10.476 36.8615 13.1181 36.8615 16.366V17.0205C36.8615 17.742 36.1424 18.3293 35.2589 18.3293C34.3754 18.3293 33.6562 17.742 33.6562 17.0205V14.4027C33.6562 14.0409 33.2978 13.7482 32.8549 13.7482C32.6393 13.7482 32.4457 13.8194 32.3018 13.9323C31.5935 13.4168 30.6705 13.0937 29.6495 13.0937C27.4403 13.0937 25.6428 14.5618 25.6428 16.3659C25.6428 18.1701 27.4403 19.6382 29.6496 19.6382C30.8438 19.6382 31.9056 19.2007 32.6403 18.5214C33.2208 19.1949 34.1759 19.6382 35.259 19.6382C37.0267 19.6382 38.4643 18.4642 38.4643 17.0204V16.3659C38.4643 12.6174 34.9367 9.53244 30.4509 9.20027ZM3.20538 1.31375H27.2455C27.2789 1.31375 27.3069 1.32768 27.3398 1.32933L15.8844 9.0086C15.4767 9.21824 14.8858 9.17474 14.6206 9.04185L3.11215 1.32921C3.14468 1.32762 3.17233 1.31375 3.20538 1.31375ZM28.8482 9.20027C24.3624 9.53244 20.8348 12.6174 20.8348 16.366C20.8348 16.5869 20.8514 16.8046 20.8754 17.0205H3.20538C2.3219 17.0205 1.60273 16.4331 1.60273 15.7116V2.62268C1.60273 2.43733 1.65284 2.26228 1.73833 2.1024L13.6745 10.0964C14.1409 10.345 14.677 10.4761 15.2255 10.4761C15.753 10.4761 16.2687 10.3546 16.7226 10.1246C16.7679 10.1047 16.811 10.0811 16.8517 10.0536L28.7125 2.10227C28.7981 2.26228 28.8483 2.43733 28.8483 2.62274V9.20027H28.8482ZM29.6496 18.3293C28.3239 18.3293 27.2455 17.4487 27.2455 16.366C27.2455 15.2833 28.3239 14.4027 29.6496 14.4027C30.9752 14.4027 32.0536 15.2833 32.0536 16.366C32.0536 17.4487 30.9752 18.3293 29.6496 18.3293Z" fill="black"/>
</svg>
