<svg width="34" height="29" viewBox="0 0 34 29" fill="none" xmlns="http://www.w3.org/2000/svg">
<path d="M9.42748 8.87365V0.835938C5.89158 0.892439 2.83542 2.88728 2.00056 5.70469C0.256487 11.591 0.256487 17.7321 2.00056 23.6184C2.83536 26.4358 5.89158 28.4307 9.42748 28.4872V20.4495C7.96168 20.1478 6.87639 19.0644 6.87639 17.7736V11.5495C6.87639 10.2587 7.96161 9.17528 9.42748 8.87365Z" fill="black"/>
<path d="M14.4958 0.83252H11.4365V8.78888H14.4958V0.83252Z" fill="black"/>
<path d="M14.4958 20.5327H11.4365V28.4898H14.4958V20.5327Z" fill="black"/>
<path d="M26.8045 9.36084L24.3269 11.3843L26.5875 13.2305H14.5957V16.0922H26.5875L24.3269 17.9385L26.8045 19.962L33.295 14.6614L26.8045 9.36084Z" fill="black"/>
</svg>
