<svg width="36" height="36" viewBox="0 0 36 36" fill="none" xmlns="http://www.w3.org/2000/svg">
<g clip-path="url(#clip0)">
<path d="M17.9405 0.632324H17.9318C8.42271 0.632324 0.689941 8.36725 0.689941 17.8785C0.689941 21.6511 1.9058 25.1478 3.97319 27.987L1.82388 34.3939L8.45289 32.2748C11.1799 34.0813 14.433 35.1247 17.9405 35.1247C27.4496 35.1247 35.1824 27.3877 35.1824 17.8785C35.1824 8.3694 27.4496 0.632324 17.9405 0.632324Z" fill="#4CAF50"/>
<path d="M27.9756 24.9866C27.5596 26.1615 25.9082 27.1359 24.5911 27.4204C23.6899 27.6123 22.5129 27.7654 18.5506 26.1227C13.4824 24.0229 10.2185 18.8728 9.96412 18.5386C9.72052 18.2045 7.91614 15.8116 7.91614 13.3368C7.91614 10.8619 9.17296 9.65685 9.67956 9.13946C10.0956 8.71477 10.7833 8.52075 11.443 8.52075C11.6564 8.52075 11.8483 8.53153 12.0207 8.54015C12.5273 8.56171 12.7817 8.59189 13.1159 9.39169C13.5319 10.3941 14.5451 12.869 14.6659 13.1233C14.7888 13.3777 14.9116 13.7226 14.7392 14.0568C14.5775 14.4017 14.4352 14.5548 14.1808 14.848C13.9264 15.1411 13.685 15.3653 13.4306 15.6801C13.1978 15.9539 12.9348 16.2471 13.228 16.7537C13.5212 17.2495 14.5344 18.903 16.0262 20.2309C17.9513 21.9448 19.5121 22.4923 20.0704 22.7252C20.4865 22.8976 20.9823 22.8567 21.2863 22.5333C21.6721 22.1172 22.1486 21.4274 22.6336 20.7483C22.9785 20.2611 23.414 20.2007 23.871 20.3732C24.3367 20.5349 26.8007 21.7529 27.3073 22.0051C27.8139 22.2595 28.1481 22.3802 28.271 22.5937C28.3917 22.8071 28.3917 23.8095 27.9756 24.9866Z" fill="#FAFAFA"/>
</g>
<defs>
<clipPath id="clip0">
<rect width="34.4924" height="34.4924" fill="white" transform="translate(0.689941 0.632324)"/>
</clipPath>
</defs>
</svg>
